<?xml version="1.0" encoding="UTF-8"?>
<svg xmlns="http://www.w3.org/2000/svg" preserveAspectRatio="none" viewBox="0 0 640 170">
 <title>black Star Glasses</title>

 <metadata id="metadata7">image/svg+xml</metadata>
 <g>
  <title>Layer 1</title>
  <path id="path2830" fill="#000000" stroke="#000000" stroke-width="5" d="m453.89682,13.045532c-33.345001,0.237 -65.478027,11.315002 -98.208008,15.745026c-13.660004,1.848999 -27.739014,2.302002 -41.421997,0.582977c-18.193024,-2.28598 -35.807007,-8.358002 -53.988007,-11.079987c-16.247986,-2.43103 -32.699005,-4.971008 -49.048996,-5.072021c-28.573013,-0.179993 -56.207001,9.328003 -84.216995,14.462006c0,8.708008 -1.665009,19.886017 2.52298,26.006989c4.320007,6.313019 11.60701,12.087036 13.497009,20.641998c4.481995,20.290009 10.845993,40.179016 18.983002,59.246033c3.953995,9.265991 11.416992,15.725983 19.750992,20.175995c20.069,10.716003 43.822006,12.291992 65.837997,8.921997c31.352997,-4.799011 48.363007,-29.802002 61.339996,-58.371002c4.857025,-11.612976 5.399017,-25.016022 11.796021,-35.630005c3.798981,-6.303009 12.621979,-3.649963 18.927002,-3.673004c6.306,-0.02298 11.651001,11.124023 13.606995,18.544037c6.925995,26.257965 18.472992,54.116974 41.423004,67.874969c34.270996,20.54599 88.263,16.703003 110.498962,-20.351013c8.702026,-14.501984 11.105103,-32.096985 15.471069,-48.514984c2.657959,-9.996002 5.032959,-21.912994 14.484924,-27.40799c3.814026,-2.218018 1.137024,-11.067017 1.700012,-16.210999c0.614014,-5.604004 1.796997,-10.562012 -5.705994,-11.662018c-13.085999,-1.92099 -25.779968,-7.761017 -39.172974,-9.738007c-12.692017,-1.873993 -25.127014,-4.58197 -38.076996,-4.490997zm-220.446991,9.330017c9.465973,-0.063019 18.890991,0.673004 28.090973,2.740997c54.81601,12.322998 55.924011,36.326996 33.358002,85.953979c-18.388,40.437012 -56.479004,50.569 -94.860992,40.876007c-17.694,-4.46701 -29.792007,-17.593994 -35.498001,-35.570007c-6.02301,-18.972992 -10.578003,-39.129974 -9.546997,-59.071991c1.381989,-26.701996 29.798996,-30.455017 50.146988,-32.888c9.337006,-1.115997 18.845001,-1.97699 28.310028,-2.040985zm200.146973,0c9.466003,0.063995 18.973999,0.924988 28.311005,2.040985c20.346954,2.432983 48.766022,6.186005 50.146027,32.888c1.031006,19.942017 -3.524048,40.098999 -9.546997,59.071991c-5.706055,17.976013 -17.804016,31.102997 -35.49704,35.570007c-38.380981,9.692993 -76.472992,-0.438995 -94.862,-40.876007c-22.565979,-49.626984 -21.457001,-73.630981 33.359009,-85.953979c9.200012,-2.067993 18.625,-2.804016 28.089996,-2.740997z"/>
 </g>
</svg>