<?xml version="1.0" encoding="UTF-8"?>
<svg viewBox="0 0 640 480" xmlns="http://www.w3.org/2000/svg" preserveAspectRatio="none"><g><path fill="#020001" stroke-width="1px" d="m349.597595,238.17981c15.849091,14.657486 34.60968,25.733734 56.281982,33.228851c21.671265,7.495331 46.092407,11.24292 73.263641,11.242828c32.668762,0.000092 59.354279,-5.579712 80.056244,-16.739349c20.700806,-11.325974 31.051331,-25.733459 31.052124,-43.222443c-0.000793,-16.822479 -9.542786,-30.813492 -28.62616,-41.973221c-19.084778,-11.159363 -43.020752,-16.73912 -71.808075,-16.739334c-26.5242,0.000214 -50.622009,5.663269 -72.293213,16.989166c-21.348907,11.159744 -43.991089,30.230896 -67.926544,57.213501m-59.193085,-26.732941c-15.849976,-14.657166 -34.61055,-25.650101 -56.282013,-32.978958c-21.348709,-7.328445 -45.769836,-10.992783 -73.263657,-10.992981c-32.993088,0.000198 -59.84024,5.496704 -80.541473,16.489441c-20.378067,10.993195 -30.567028,25.317368 -30.566898,42.97261c-0.00013,16.822723 9.541882,30.813782 28.626179,41.973267c19.083969,11.159607 43.019958,16.739441 71.80806,16.739319c26.523346,0.000122 50.62114,-5.662964 72.293213,-16.989166c21.671478,-11.325958 44.313583,-30.397125 67.92659,-57.213531m34.448425,45.720856c-22.642609,22.485779 -46.740234,39.058563 -72.293289,49.718323c-25.230194,10.493347 -53.047653,15.740021 -83.45253,15.73996c-43.990807,0.000061 -81.026909,-9.244049 -111.108456,-27.73233c-30.081831,-18.654663 -45.122731,-41.806549 -45.122602,-69.455734c-0.00013,-29.147934 13.423501,-52.716156 40.270741,-70.70491c27.170368,-17.988297 62.427532,-26.982544 105.77132,-26.982796c30.728348,0.000252 58.384155,5.246895 82.967438,15.739967c24.905945,10.493515 49.003754,27.232849 72.293213,50.217957c21.994659,-22.985107 45.768982,-39.890991 71.322876,-50.717636c25.552734,-10.992752 54.017242,-16.489243 85.393311,-16.489471c43.343018,0.000229 80.217407,9.410889 110.62323,28.231979c30.404541,18.654984 45.606995,41.890076 45.607788,69.705536c-0.000793,29.148254 -13.585999,52.633209 -40.755859,70.455109c-26.8479,17.822021 -61.943237,26.733032 -105.286163,26.732941c-30.405701,0.000092 -57.738037,-4.913483 -81.99704,-14.74057c-23.936401,-9.993561 -48.681091,-26.566345 -74.233978,-49.718323" id="text1306"/></g></svg>